<?xml version="1.0" encoding="utf-8"?>
<!-- Generator: Adobe Illustrator 25.2.0, SVG Export Plug-In . SVG Version: 6.00 Build 0)  -->
<svg version="1.1" id="Layer_1" xmlns="http://www.w3.org/2000/svg" xmlns:xlink="http://www.w3.org/1999/xlink" x="0px" y="0px"
	 viewBox="0 0 877 744" style="enable-background:new 0 0 877 744;" xml:space="preserve">
<style type="text/css">
	.st0{fill:#231F20;}
	.st1{fill:#E6E6E6;}
	.st2{fill:#3F3D56;}
	.st3{fill:#FFFFFF;}
	.st4{fill:#6C63FF;}
	.st5{fill:#2F2E41;}
	.st6{fill:#A0616A;}
	.st7{fill:#CCCCCC;}
</style>
<path class="st0" d="M515,191h-26c-2.8,0-5-2.2-5-5v-26c0-2.8,2.2-5,5-5h26c2.8,0,5,2.2,5,5v26C520,188.8,517.8,191,515,191z
	 M489,157c-1.7,0-3,1.3-3,3v26c0,1.7,1.3,3,3,3h26c1.7,0,3-1.3,3-3v-26c0-1.7-1.3-3-3-3H489z"/>
<path class="st1" d="M212,36h-26c-2.8,0-5-2.2-5-5V5c0-2.8,2.2-5,5-5h26c2.8,0,5,2.2,5,5v26C217,33.8,214.8,36,212,36z M186,2
	c-1.7,0-3,1.3-3,3v26c0,1.7,1.3,3,3,3h26c1.7,0,3-1.3,3-3V5c0-1.7-1.3-3-3-3H186z"/>
<path class="st0" d="M499,177h-26c-2.8,0-5-2.2-5-5v-26c0-2.8,2.2-5,5-5h26c2.8,0,5,2.2,5,5v26C504,174.8,501.8,177,499,177z
	 M473,143c-1.7,0-3,1.3-3,3v26c0,1.7,1.3,3,3,3h26c1.7,0,3-1.3,3-3v-26c0-1.7-1.3-3-3-3H473z"/>
<path class="st0" d="M47,395H21c-2.8,0-5-2.2-5-5v-26c0-2.8,2.2-5,5-5h26c2.8,0,5,2.2,5,5v26C52,392.8,49.8,395,47,395z M21,361
	c-1.7,0-3,1.3-3,3v26c0,1.7,1.3,3,3,3h26c1.7,0,3-1.3,3-3v-26c0-1.7-1.3-3-3-3H21z"/>
<path class="st0" d="M31,382H5c-2.8,0-5-2.2-5-5v-26c0-2.8,2.2-5,5-5h26c2.8,0,5,2.2,5,5v26C36,379.8,33.8,382,31,382z M5,348
	c-1.7,0-3,1.3-3,3v26c0,1.7,1.3,3,3,3h26c1.7,0,3-1.3,3-3v-26c0-1.7-1.3-3-3-3H5z"/>
<path class="st2" d="M92.4,86H333c23.9,0,44.6,16.6,49.9,39.9l121.6,539.3c5,22.3-9,44.4-31.2,49.4c-2.3,0.5-4.7,0.8-7.1,1
	l-247.4,12.2c-27.4,1.3-51.5-17.8-56.4-44.8l-69-381.3l-5.1,1.5l-13.2-72.3l5.3-1.3L61.2,123.1c-3.1-17.1,8.3-33.5,25.4-36.6
	C88.5,86.2,90.5,86,92.4,86L92.4,86z"/>
<path class="st3" d="M301.4,97.7h28.1c16.6,0,31,11.6,34.5,27.8l116.7,534.9c2.6,11.8-4.9,23.5-16.7,26.1c-1.1,0.2-2.1,0.4-3.2,0.5
	L214.2,703c-14.4,0.9-27.2-9.1-29.8-23.3L84.8,126.9c-2.4-13.5,6.5-26.4,20-28.9c1.5-0.3,2.9-0.4,4.4-0.4h26.6
	c5.3,0,9.9,3.6,11.3,8.7l0,0c1.2,4.5,5.3,7.7,10,7.7h126.5C293,114,300.7,106.9,301.4,97.7L301.4,97.7z"/>
<polygon class="st4" points="104,188.6 371.5,188.6 400,317 129,322 "/>
<polygon class="st4" points="358,431.8 421,431.8 423,443.8 360,443.8 "/>
<rect x="142.2" y="373.1" transform="matrix(0.9998 -2.117171e-02 2.117171e-02 0.9998 -7.8503 5.9211)" class="st5" width="267.1" height="1.3"/>
<rect x="145.3" y="410.5" transform="matrix(0.9997 -2.308848e-02 2.308848e-02 0.9997 -9.4167 6.606)" class="st5" width="272.2" height="1.3"/>
<polygon class="st4" points="384,560.8 447,560.8 449,572.8 386,572.8 "/>
<rect x="168.2" y="502.1" transform="matrix(0.9998 -2.117171e-02 2.117171e-02 0.9998 -10.5756 6.5005)" class="st5" width="267.1" height="1.3"/>
<rect x="171.3" y="539.5" transform="matrix(0.9997 -2.308848e-02 2.308848e-02 0.9997 -12.3882 7.2407)" class="st5" width="272.2" height="1.3"/>
<polygon class="st6" points="615.6,731.2 603.6,731.2 598,685.2 615.6,685.2 "/>
<path class="st5" d="M618.6,742.8l-38.4,0v-0.5c0-8.3,6.7-15,15-15h0l23.5,0L618.6,742.8z"/>
<polygon class="st6" points="763.6,723.4 752,726.1 735.9,682.7 753,678.7 "/>
<path class="st5" d="M769.2,734l-37.4,8.8l-0.1-0.5c-1.9-8,3.1-16.1,11.1-18l0,0l22.8-5.4L769.2,734z"/>
<path class="st5" d="M613.1,537.4c0-2.4,0.7-58.9,16.2-80.3l0.2-0.3l54,7.4l-1.2,11.9c2.4,2.3,21.1,21.8,26.4,68.1L766.1,698
	l-26.6,2.4l-78.9-168l-41.7,182.6h-26.4L613.1,537.4z"/>
<path class="st7" d="M623,459.2l5.3-27.7c-1-1.3-5.6-7.7-4.6-15.2c0.7-4.9,3.6-9.2,8.7-12.7l13.7-31.9l0.2-0.1
	c0.9-0.5,22.7-13.1,34.6-1.3c0.3,0.2,29.5,23.4,17.8,54.7l-14.5,43.5L623,459.2z"/>
<path class="st6" d="M604.7,496.7c5.4-0.6,9.2-5.5,8.6-10.8c-0.1-0.6-0.2-1.1-0.3-1.7l28.3-20.4l-16.9-6.4L600,477.6
	c-5.1,1.9-7.7,7.6-5.8,12.7C595.8,494.6,600.1,497.2,604.7,496.7L604.7,496.7z"/>
<path class="st7" d="M609.9,463.7l43.1-34l-12.8-43.8c-1.2-4.2-0.6-8.7,1.6-12.5c2.1-3.5,5.5-6,9.5-6.9c7.4-1.6,14.1,2.6,19.9,12.3
	l0,0.1c1,2.4,23.4,57.9,6.3,69.8c-16.8,11.6-55.7,28.5-56.1,28.7l-0.5,0.2L609.9,463.7z"/>
<circle class="st6" cx="667.2" cy="332.6" r="26.1"/>
<circle class="st5" cx="708.1" cy="300.1" r="23.1"/>
<path class="st5" d="M728.1,319.3c-10.3,7.5-24.8,5.2-32.3-5.2c-1.5-2.1-2.7-4.5-3.4-6.9c1.6,12.7,13.2,21.6,25.8,20.1
	s21.6-13.2,20.1-25.8c-0.2-1.3-0.4-2.5-0.8-3.7C738.5,306,734.9,314.3,728.1,319.3z"/>
<path class="st5" d="M636.9,319.3c4-7.2,5.6-10.2,10.8-14.6c4.6-3.9,10.3-5,14.8-1.3c13.9-6,29.9,0.4,35.9,14.3
	c6,13.9-0.4,29.9-14.3,35.9c-13.9,6-29.9-0.4-35.9-14.3c-1.5-3.4-2.2-7.1-2.2-10.8c0-1,0.1-2.1,0.2-3.1
	C642.2,324.7,640.8,319.8,636.9,319.3z"/>
<path class="st2" d="M876,744H495c-0.6,0-1-0.4-1-1s0.4-1,1-1h381c0.6,0,1,0.4,1,1S876.5,744,876,744z"/>
<path class="st0" d="M539,456.3h-26c-2.8,0-5-2.2-5-5v-26c0-2.8,2.2-5,5-5h26c2.8,0,5,2.2,5,5v26C544,454,541.8,456.3,539,456.3z
	 M513,422.3c-1.7,0-3,1.3-3,3v26c0,1.7,1.3,3,3,3h26c1.7,0,3-1.3,3-3v-26c0-1.7-1.3-3-3-3H513z"/>
<path class="st0" d="M523,443.3h-26c-2.8,0-5-2.2-5-5v-26c0-2.8,2.2-5,5-5h26c2.8,0,5,2.2,5,5v26C528,441,525.8,443.3,523,443.3z
	 M497,409.3c-1.7,0-3,1.3-3,3v26c0,1.7,1.3,3,3,3h26c1.7,0,3-1.3,3-3v-26c0-1.7-1.3-3-3-3H497z"/>
<path class="st0" d="M71,634.9H45c-2.8,0-5-2.2-5-5v-26c0-2.8,2.2-5,5-5h26c2.8,0,5,2.2,5,5v26C76,632.7,73.8,634.9,71,634.9z
	 M45,600.9c-1.7,0-3,1.3-3,3v26c0,1.7,1.3,3,3,3h26c1.7,0,3-1.3,3-3v-26c0-1.7-1.3-3-3-3H45z"/>
<path class="st0" d="M55,621.9H29c-2.8,0-5-2.2-5-5v-26c0-2.8,2.2-5,5-5h26c2.8,0,5,2.2,5,5v26C60,619.7,57.8,621.9,55,621.9z
	 M29,587.9c-1.7,0-3,1.3-3,3v26c0,1.7,1.3,3,3,3h26c1.7,0,3-1.3,3-3v-26c0-1.7-1.3-3-3-3H29z"/>
</svg>
